<?xml version="1.0" encoding="utf-8"?>
<!-- Generator: Adobe Illustrator 19.0.0, SVG Export Plug-In . SVG Version: 6.00 Build 0)  -->
<svg version="1.1" id="Layer_1" xmlns="http://www.w3.org/2000/svg" xmlns:xlink="http://www.w3.org/1999/xlink" x="0px" y="0px"
	 viewBox="0 0 792 612" style="enable-background:new 0 0 792 612;" xml:space="preserve">
<style type="text/css">
	.st0{fill:#D32228;}
	.st1{fill:#991D20;}
</style>
<g id="XMLID_2_">
	<polygon id="XMLID_6_" class="st0" points="262.2,261.4 217.7,185.9 217.7,257.6 234.6,286.2 	"/>
	<polygon id="XMLID_7_" class="st0" points="252.8,317 262.6,333.5 304.7,333.5 277.7,287.8 	"/>
</g>
<g id="XMLID_5_">
	<polygon id="XMLID_8_" class="st1" points="203.1,282.2 217.7,257.6 217.7,185.9 178.7,252.1 	"/>
	<polygon id="XMLID_9_" class="st1" points="154.8,292.6 109.8,369 151.8,369 180.9,319.7 	"/>
</g>
<path id="XMLID_3_" d="M171,250.3l46.6,57.4L372.6,169L228,338.8c-5.5,6.5-15.4,6.8-21.4,0.7l-59.9-62c-8.9-8.1-8.4-21.6-0.8-28.3
	C152.6,243.4,163.6,243.5,171,250.3z"/>
<path id="XMLID_13_" class="st0" d="M338.7,247.8h-29.6v85.8h28.2v-18.3c0,0,38.1,2.9,38.1-33C375.3,247.8,338.7,247.8,338.7,247.8z
	 M337.3,287.8v-13.2c0,0,11-1.5,11,6.6C348.3,289.2,337.3,287.8,337.3,287.8z"/>
<path id="XMLID_4_" class="st0" d="M409.4,247.8h-29.6v85.8H408v-18.3c0,0,38.1,2.9,38.1-33C446,247.8,409.4,247.8,409.4,247.8z
	 M408,287.8v-13.2c0,0,11-1.5,11,6.6C419,289.2,408,287.8,408,287.8z"/>
<path id="XMLID_15_" class="st0" d="M427,300.9c0,0,6.1,20.9,26.5,10.8l16.7,20c0,0-47.9,24.9-66.3-24.9L427,300.9z"/>
<path id="XMLID_28_" class="st0" d="M501.5,247c-24.5,0-44.4,19.9-44.4,44.4s19.9,44.4,44.4,44.4s44.4-19.9,44.4-44.4
	S526.1,247,501.5,247z M501.5,309.8c-10.2,0-18.4-8.2-18.4-18.4s8.2-18.4,18.4-18.4s18.4,8.2,18.4,18.4S511.7,309.8,501.5,309.8z"/>
<polygon id="XMLID_20_" class="st0" points="595.4,247.8 583.3,286.6 571.3,247.8 543.5,247.8 568.5,333.5 583.3,333.5 598.2,333.5 
	623.2,247.8 "/>
<path id="XMLID_23_" class="st0" d="M666,247.8h-14.8h-14.8l-25,85.8h24.6l3.4-10.9H663l3.4,10.9H691L666,247.8z M643.7,297.4
	l4.4-15.6h3l4.1,15.6H643.7z"/>
<g id="XMLID_17_">
	<path id="XMLID_16_" d="M341.9,372.2c-2.5,5.9-8.6,9.5-14.7,9.5c-9.2,0-16.6-7.7-16.6-16.7c0-8.8,7.3-16.5,16.5-16.5
		c5.3,0,12,2.8,15,9.7h-6.7c-2.3-2.6-5-4.2-8.5-4.2c-5.2,0-10.4,4.7-10.4,11c0,6,5,11.1,10.6,11.1c4.3,0,6.6-2.5,8-4H341.9z"/>
	<path id="XMLID_21_" d="M370.3,348.5c9.1,0,16.7,7.2,16.7,16.7c0,9.1-7.5,16.5-16.7,16.5c-9.2,0-16.7-7.4-16.7-16.5
		C353.6,355.8,361.2,348.5,370.3,348.5z M370.3,376.2c6.1,0,10.8-5.1,10.8-11c0-6.1-4.8-11.1-10.8-11.1c-6,0-10.8,5-10.8,11.1
		C359.5,371.1,364.2,376.2,370.3,376.2z"/>
	<path id="XMLID_29_" d="M400.9,349.2h6.7l13.2,23.2h0.1v-23.2h5.9v31.9h-6.6l-13.3-23.2h-0.1v23.2h-5.9V349.2z"/>
	<path id="XMLID_32_" d="M446,372c0.3,3.2,2.4,4.3,4.2,4.3c2.3,0,4.4-1.6,4.4-4c0-3.3-2.1-3.9-6.1-5.4c-2.5-0.9-7.6-2.5-7.6-9.2
		c0-5.1,4-9.1,9.4-9.1c3.7,0,9.1,2.6,9.4,9.1h-6c-0.3-2.8-2-3.6-3.6-3.6c-1.9,0-3.3,1.3-3.3,3.2c0,2.8,2.1,3.4,5.3,4.4
		c2.6,0.9,8.4,2.9,8.4,9.8c0,6.9-5.3,10.2-10.3,10.2c-4.1,0-10-2.8-10.4-9.8H446z"/>
	<path id="XMLID_35_" d="M479.5,349.2v20.3c0,1.6,0,6.8,5.5,6.8s5.5-5.2,5.5-6.8v-20.3h5.9v20.3c0,2.6-0.3,5.4-1.9,7.5
		c-1.9,2.6-5.2,4.7-9.5,4.7c-4.9,0-8.1-2.7-9.5-4.6c-1-1.4-2-3.8-2-7.7v-20.3H479.5z"/>
	<path id="XMLID_37_" d="M511.4,349.2h5.9v26.4h9.7v5.5h-15.7V349.2z"/>
	<path id="XMLID_39_" d="M540.7,354.7h-5.9v-5.5h17.8v5.5h-6v26.4h-5.9V354.7z"/>
	<path id="XMLID_41_" d="M580.3,348.5c9.1,0,16.7,7.2,16.7,16.7c0,9.1-7.5,16.5-16.7,16.5c-9.2,0-16.7-7.4-16.7-16.5
		C563.6,355.8,571.2,348.5,580.3,348.5z M580.3,376.2c6.1,0,10.8-5.1,10.8-11c0-6.1-4.8-11.1-10.8-11.1c-6,0-10.8,5-10.8,11.1
		C569.5,371.1,574.2,376.2,580.3,376.2z"/>
	<path id="XMLID_44_" d="M610.6,349.2h9.8c3.7,0,6,0.7,7.8,2.2c1.8,1.5,3.8,4.1,3.8,7.7c0,2.1-0.8,5.4-3.1,7.6
		c-1.9,1.8-3.7,2.2-5.3,2.6l8.7,11.8h-7.2l-8.5-12.2h-0.1v12.2h-5.9V349.2z M616.5,364.5h3.8c4.9,0,5.7-3.2,5.7-4.9
		c0-1.8-1.1-4.8-5.7-4.8h-3.8V364.5z"/>
	<path id="XMLID_47_" d="M645,349.2h17.2v5.5h-11.3v7.8h10.8v5.5h-10.8v7.5h11.3v5.5H645V349.2z"/>
	<path id="XMLID_49_" d="M681,372c0.3,3.2,2.4,4.3,4.2,4.3c2.3,0,4.4-1.6,4.4-4c0-3.3-2.1-3.9-6.1-5.4c-2.5-0.9-7.6-2.5-7.6-9.2
		c0-5.1,4-9.1,9.4-9.1c3.7,0,9.1,2.6,9.4,9.1h-6c-0.3-2.8-2-3.6-3.6-3.6c-1.9,0-3.3,1.3-3.3,3.2c0,2.8,2.1,3.4,5.3,4.4
		c2.6,0.9,8.4,2.9,8.4,9.8c0,6.9-5.3,10.2-10.3,10.2c-4.1,0-10-2.8-10.4-9.8H681z"/>
</g>
</svg>
