<?xml version="1.0" encoding="UTF-8" standalone="no"?>
<svg
   xmlns:dc="http://purl.org/dc/elements/1.1/"
   xmlns:cc="http://creativecommons.org/ns#"
   xmlns:rdf="http://www.w3.org/1999/02/22-rdf-syntax-ns#"
   xmlns:svg="http://www.w3.org/2000/svg"
   xmlns="http://www.w3.org/2000/svg"
   height="212.7"
   width="585.70001"
   xml:space="preserve"
   viewBox="0 0 585.70001 212.7"
   y="0px"
   x="0px"
   id="Layer_1"
   version="1.1"><metadata
     id="metadata919"><rdf:RDF><cc:Work
         rdf:about=""><dc:format>image/svg+xml</dc:format><dc:type
           rdf:resource="http://purl.org/dc/dcmitype/StillImage" /><dc:title></dc:title></cc:Work></rdf:RDF></metadata><defs
     id="defs917" /><style
     id="style887"
     type="text/css">
	.st0{fill:#D32228;}
	.st1{fill:#991D20;}
</style><g
     transform="translate(-109.8,-169)"
     id="XMLID_2_"><polygon
       style="fill:#d32228"
       points="217.7,257.6 234.6,286.2 262.2,261.4 217.7,185.9 "
       class="st0"
       id="XMLID_6_" /><polygon
       style="fill:#d32228"
       points="304.7,333.5 277.7,287.8 252.8,317 262.6,333.5 "
       class="st0"
       id="XMLID_7_" /></g><g
     transform="translate(-109.8,-169)"
     id="XMLID_5_"><polygon
       style="fill:#991d20"
       points="217.7,185.9 178.7,252.1 203.1,282.2 217.7,257.6 "
       class="st1"
       id="XMLID_8_" /><polygon
       style="fill:#991d20"
       points="151.8,369 180.9,319.7 154.8,292.6 109.8,369 "
       class="st1"
       id="XMLID_9_" /></g><path
     d="M 61.2,81.3 107.8,138.7 262.8,0 118.2,169.8 c -5.5,6.5 -15.4,6.8 -21.4,0.7 l -59.9,-62 C 28,100.4 28.5,86.9 36.1,80.2 c 6.7,-5.8 17.7,-5.7 25.1,1.1 z"
     id="XMLID_3_" /><path
     style="fill:#d32228"
     d="m 228.9,78.8 h -29.6 v 85.8 h 28.2 v -18.3 c 0,0 38.1,2.9 38.1,-33 -0.1,-34.5 -36.7,-34.5 -36.7,-34.5 z m -1.4,40 v -13.2 c 0,0 11,-1.5 11,6.6 0,8 -11,6.6 -11,6.6 z"
     class="st0"
     id="XMLID_13_" /><path
     style="fill:#d32228"
     d="M 299.6,78.8 H 270 v 85.8 h 28.2 v -18.3 c 0,0 38.1,2.9 38.1,-33 -0.1,-34.5 -36.7,-34.5 -36.7,-34.5 z m -1.4,40 v -13.2 c 0,0 11,-1.5 11,6.6 0,8 -11,6.6 -11,6.6 z"
     class="st0"
     id="XMLID_4_" /><path
     style="fill:#d32228"
     d="m 317.2,131.9 c 0,0 6.1,20.9 26.5,10.8 l 16.7,20 c 0,0 -47.9,24.9 -66.3,-24.9 z"
     class="st0"
     id="XMLID_15_" /><path
     style="fill:#d32228"
     d="m 391.7,78 c -24.5,0 -44.4,19.9 -44.4,44.4 0,24.5 19.9,44.4 44.4,44.4 24.5,0 44.4,-19.9 44.4,-44.4 C 436.1,97.9 416.3,78 391.7,78 Z m 0,62.8 c -10.2,0 -18.4,-8.2 -18.4,-18.4 0,-10.2 8.2,-18.4 18.4,-18.4 10.2,0 18.4,8.2 18.4,18.4 0,10.2 -8.2,18.4 -18.4,18.4 z"
     class="st0"
     id="XMLID_28_" /><polygon
     transform="translate(-109.8,-169)"
     style="fill:#d32228"
     points="571.3,247.8 543.5,247.8 568.5,333.5 583.3,333.5 598.2,333.5 623.2,247.8 595.4,247.8 583.3,286.6 "
     class="st0"
     id="XMLID_20_" /><path
     style="fill:#d32228"
     d="m 556.2,78.8 h -14.8 -14.8 l -25,85.8 h 24.6 l 3.4,-10.9 h 23.6 l 3.4,10.9 h 24.6 z m -22.3,49.6 4.4,-15.6 h 3 l 4.1,15.6 z"
     class="st0"
     id="XMLID_23_" /><g
     transform="translate(-109.8,-169)"
     id="XMLID_17_"><path
       d="m 341.9,372.2 c -2.5,5.9 -8.6,9.5 -14.7,9.5 -9.2,0 -16.6,-7.7 -16.6,-16.7 0,-8.8 7.3,-16.5 16.5,-16.5 5.3,0 12,2.8 15,9.7 h -6.7 c -2.3,-2.6 -5,-4.2 -8.5,-4.2 -5.2,0 -10.4,4.7 -10.4,11 0,6 5,11.1 10.6,11.1 4.3,0 6.6,-2.5 8,-4 h 6.8 z"
       id="XMLID_16_" /><path
       d="m 370.3,348.5 c 9.1,0 16.7,7.2 16.7,16.7 0,9.1 -7.5,16.5 -16.7,16.5 -9.2,0 -16.7,-7.4 -16.7,-16.5 0,-9.4 7.6,-16.7 16.7,-16.7 z m 0,27.7 c 6.1,0 10.8,-5.1 10.8,-11 0,-6.1 -4.8,-11.1 -10.8,-11.1 -6,0 -10.8,5 -10.8,11.1 0,5.9 4.7,11 10.8,11 z"
       id="XMLID_21_" /><path
       d="m 400.9,349.2 h 6.7 l 13.2,23.2 h 0.1 v -23.2 h 5.9 v 31.9 h -6.6 l -13.3,-23.2 h -0.1 v 23.2 h -5.9 z"
       id="XMLID_29_" /><path
       d="m 446,372 c 0.3,3.2 2.4,4.3 4.2,4.3 2.3,0 4.4,-1.6 4.4,-4 0,-3.3 -2.1,-3.9 -6.1,-5.4 -2.5,-0.9 -7.6,-2.5 -7.6,-9.2 0,-5.1 4,-9.1 9.4,-9.1 3.7,0 9.1,2.6 9.4,9.1 h -6 c -0.3,-2.8 -2,-3.6 -3.6,-3.6 -1.9,0 -3.3,1.3 -3.3,3.2 0,2.8 2.1,3.4 5.3,4.4 2.6,0.9 8.4,2.9 8.4,9.8 0,6.9 -5.3,10.2 -10.3,10.2 -4.1,0 -10,-2.8 -10.4,-9.8 h 6.2 z"
       id="XMLID_32_" /><path
       d="m 479.5,349.2 v 20.3 c 0,1.6 0,6.8 5.5,6.8 5.5,0 5.5,-5.2 5.5,-6.8 v -20.3 h 5.9 v 20.3 c 0,2.6 -0.3,5.4 -1.9,7.5 -1.9,2.6 -5.2,4.7 -9.5,4.7 -4.9,0 -8.1,-2.7 -9.5,-4.6 -1,-1.4 -2,-3.8 -2,-7.7 v -20.3 h 6 z"
       id="XMLID_35_" /><path
       d="m 511.4,349.2 h 5.9 v 26.4 h 9.7 v 5.5 h -15.7 v -31.9 z"
       id="XMLID_37_" /><path
       d="m 540.7,354.7 h -5.9 v -5.5 h 17.8 v 5.5 h -6 v 26.4 h -5.9 z"
       id="XMLID_39_" /><path
       d="m 580.3,348.5 c 9.1,0 16.7,7.2 16.7,16.7 0,9.1 -7.5,16.5 -16.7,16.5 -9.2,0 -16.7,-7.4 -16.7,-16.5 0,-9.4 7.6,-16.7 16.7,-16.7 z m 0,27.7 c 6.1,0 10.8,-5.1 10.8,-11 0,-6.1 -4.8,-11.1 -10.8,-11.1 -6,0 -10.8,5 -10.8,11.1 0,5.9 4.7,11 10.8,11 z"
       id="XMLID_41_" /><path
       d="m 610.6,349.2 h 9.8 c 3.7,0 6,0.7 7.8,2.2 1.8,1.5 3.8,4.1 3.8,7.7 0,2.1 -0.8,5.4 -3.1,7.6 -1.9,1.8 -3.7,2.2 -5.3,2.6 l 8.7,11.8 h -7.2 l -8.5,-12.2 h -0.1 v 12.2 h -5.9 z m 5.9,15.3 h 3.8 c 4.9,0 5.7,-3.2 5.7,-4.9 0,-1.8 -1.1,-4.8 -5.7,-4.8 h -3.8 z"
       id="XMLID_44_" /><path
       d="m 645,349.2 h 17.2 v 5.5 h -11.3 v 7.8 h 10.8 v 5.5 h -10.8 v 7.5 h 11.3 V 381 H 645 Z"
       id="XMLID_47_" /><path
       d="m 681,372 c 0.3,3.2 2.4,4.3 4.2,4.3 2.3,0 4.4,-1.6 4.4,-4 0,-3.3 -2.1,-3.9 -6.1,-5.4 -2.5,-0.9 -7.6,-2.5 -7.6,-9.2 0,-5.1 4,-9.1 9.4,-9.1 3.7,0 9.1,2.6 9.4,9.1 h -6 c -0.3,-2.8 -2,-3.6 -3.6,-3.6 -1.9,0 -3.3,1.3 -3.3,3.2 0,2.8 2.1,3.4 5.3,4.4 2.6,0.9 8.4,2.9 8.4,9.8 0,6.9 -5.3,10.2 -10.3,10.2 -4.1,0 -10,-2.8 -10.4,-9.8 h 6.2 z"
       id="XMLID_49_" /></g></svg>